<?xml version="1.0" encoding="utf-8"?>
<!DOCTYPE svg PUBLIC "-//W3C//DTD SVG 1.1//EN" "http://www.w3.org/Graphics/SVG/1.1/DTD/svg11.dtd">
<svg version="1.1" xmlns="http://www.w3.org/2000/svg" xmlns:xlink="http://www.w3.org/1999/xlink" x="0px" y="0px" viewBox="0 0 3326 430" enable-background="new 0 0 3326 430" xml:space="preserve">
    <g>
        <g transform="translate(-150.25 -46.64)">
            <path fill="#ffffff" d="M204.5,184.29c2.27-2.24,4.52-4.5,6.8-6.72,10.72-10.44,22.36-19.73,36.45-25.1,24.37-9.28,48.37-8,71.45,4.4,9.59,5.16,16.69,13.06,22.23,22.38,1.21,2,2.34,4.12,3.93,6.93,2.65-2.64,4.83-4.87,7.08-7,11.94-11.49,24.76-21.75,40.55-27.51a83.55,83.55,0,0,1,58.92.23c22,8.12,34.87,25,41.17,47a128.64,128.64,0,0,1,5,35q.15,71.37.07,142.73c0,6.13-1.5,8.36-7.45,9.93a72.23,72.23,0,0,1-12.44,1.94c-10.63.88-21.28.82-31.77-1.26-8.58-1.71-9.84-3.51-9.84-12.2,0-41.35.1-82.71-.1-124.06a149.51,149.51,0,0,0-2.19-21.48A42.66,42.66,0,0,0,431,219.32c-7.42-17.31-26-23.35-42.18-16-8,3.65-14.45,9.43-20.47,15.6-4.61,4.73-10.1,9.38-12.55,15.18-2.18,5.14-.81,11.83-.82,17.83q0,60.53,0,121c0,1.41,0,2.81,0,4.22-.11,5.84-1.5,8.11-7.21,9.38a83.64,83.64,0,0,1-16.64,2.22c-8.2.14-16.42-.51-24.63-.92a22,22,0,0,1-4.7-1c-6.79-1.92-8.33-3.94-8.33-11.13,0-41.76.11-83.51-.13-125.27,0-7.55-1.33-15.13-2.42-22.64a36.18,36.18,0,0,0-2.87-8.53c-7.64-18.25-27.42-23.23-42.67-15.72a55.21,55.21,0,0,0-12.45,8.31c-5.8,5.23-11,11.15-16.47,16.71-3.16,3.18-4.19,6.81-4.18,11.34.16,44.37.09,88.73.09,133.1,0,10.88-2.06,13.34-12.83,14.8a139.22,139.22,0,0,1-37.21-.1,31.27,31.27,0,0,1-5.81-1.52c-4.06-1.35-6.29-4.13-6.27-8.52,0-1.41,0-2.81,0-4.22V166.31c0-11.13,1.78-13.07,12.86-14.64a98.09,98.09,0,0,1,28.78.12,28.6,28.6,0,0,1,5.24,1.27c4,1.4,6.15,4.12,6,8.62-.17,5.62,0,11.24,0,16.86v5.23Z" />
            <path fill="#ffffff" d="M841.81,184.36l6.29-6.23C858.93,167.5,870.68,158,885,152.55c24.35-9.35,48.35-8.15,71.45,4.22,9.79,5.24,17,13.28,22.6,22.83,1.11,1.89,2.19,3.78,3.66,6.32,1.81-1.67,3.4-3,4.87-4.52,8.8-8.86,18.28-16.9,29.09-23.23,22.93-13.42,47.22-15.11,71.91-6.55,22.64,7.86,35.68,25.11,42,47.69a132.22,132.22,0,0,1,5,35.65q.12,70.77,0,141.53c0,6.45-1.49,8.59-7.83,10.23a68.65,68.65,0,0,1-11.86,1.81c-11,.87-22.07.93-32.94-1.5-7.6-1.71-8.86-3.45-8.87-11.12q0-62.64,0-125.27c0-8.66-.66-17.28-3.45-25.52a49.52,49.52,0,0,0-5.32-11.39c-8.53-12.87-24.24-17-38.87-10.5-8.26,3.65-14.78,9.63-21,16-4.47,4.58-9.85,9.08-12.18,14.71-2.14,5.17-.89,11.81-.89,17.81q-.07,61.12,0,122.25c0,10.08-1.65,12.3-11.68,13.72a119.37,119.37,0,0,1-31.2.7A83.73,83.73,0,0,1,940,387c-7.64-1.86-9.12-3.87-9.13-11.68,0-41.76.12-83.51-.12-125.27,0-7.55-1.38-15.13-2.5-22.64-.43-2.91-1.8-5.72-3-8.48-7.38-17.45-26.58-22.81-41.76-15.69A56.37,56.37,0,0,0,870,212.17c-5.95,5.35-11.17,11.51-16.8,17.22-2.73,2.76-3.55,5.89-3.54,9.75q.16,66.86.07,133.7c0,1.4,0,2.81,0,4.21-.19,5.58-1.9,8.22-7.37,9.48a77.86,77.86,0,0,1-16,2.23c-8.61.13-17.23-.47-25.84-.95a26.34,26.34,0,0,1-6.41-1.52c-4.33-1.38-6.6-4.34-6.47-9,0-1.2,0-2.4,0-3.61V165.9c0-10.64,1.89-12.68,12.66-14.21a97.41,97.41,0,0,1,28.78.08,30.66,30.66,0,0,1,5.81,1.44c3.78,1.39,5.72,4,5.64,8.27-.14,7.39,0,14.78,0,22.17Z" />
            <path fill="#ffffff" d="M2935.82,184.39c1.93-1.9,3.88-3.8,5.8-5.71,11.06-11,23.11-20.73,37.79-26.3,24.16-9.15,48-7.92,70.91,4.3,9.8,5.23,17.06,13.24,22.67,22.76,1.2,2,2.35,4.09,3.7,6.43,5.87-5.39,11.17-10.53,16.77-15.32,11.71-10,24.57-18.17,39.81-21.62,17.43-3.94,34.77-3.3,51.44,3.42,21.54,8.69,34,25.46,40,47.37a134.74,134.74,0,0,1,4.85,35.67q.1,70.46,0,140.92c0,6.58-1.42,8.72-7.67,10.36a67.33,67.33,0,0,1-11.85,1.83c-11.23.91-22.47,1-33.53-1.56-7.15-1.65-8.45-3.48-8.45-10.85,0-41.56.1-83.11-.11-124.67a155,155,0,0,0-2.23-22.08,41.86,41.86,0,0,0-3.41-10.23c-7.44-17-25.74-23-41.74-16-7.89,3.48-14.12,9.15-20.15,15.05-3.72,3.64-7,7.73-10.6,11.51-2.64,2.79-3.54,5.91-3.53,9.78q.18,66.56.08,133.1c0,1.61,0,3.21,0,4.82-.12,5.52-1.5,7.84-6.84,9.06a82.22,82.22,0,0,1-16.63,2.3c-8.4.16-16.82-.5-25.23-.92a21.38,21.38,0,0,1-4.69-1c-6.48-1.87-8.11-4-8.12-10.7q0-57.21,0-114.43c0-6.22.13-12.45-.16-18.66a68.16,68.16,0,0,0-5.3-23.95c-7.65-17.82-27.16-23-42.27-15.65a55.05,55.05,0,0,0-13,8.62c-6.07,5.52-11.43,11.82-17.21,17.66-2.62,2.64-3.27,5.63-3.25,9.25.1,34.73.06,69.46.06,104.19q0,16,0,31.92c0,8.18-1.49,10.23-9.54,12-10.87,2.39-21.91,2.37-32.94,1.45a70.34,70.34,0,0,1-12.43-2c-5.44-1.47-7-3.95-7.21-9.63,0-1.2,0-2.41,0-3.61V166.08c0-10.81,1.83-12.84,12.48-14.37a99.69,99.69,0,0,1,29.37.1,23.13,23.13,0,0,1,4.66,1.13c4.88,1.8,6.26,3.71,6.32,9,.08,7.22,0,14.44,0,21.66Z" />
            <path fill="#ffffff" d="M2283.89,247.15q15.84-21.22,31.67-42.44c10.56-14.17,21.27-28.22,31.56-42.58a23.18,23.18,0,0,1,16.36-10.06,137.83,137.83,0,0,1,40.81.07c11.83,1.86,14.58,7.53,8.8,18.16a67.92,67.92,0,0,1-8.86,12.08q-28.59,32.61-57.39,65c-.65.74-1.18,1.58-2,2.7,1.16,1.88,2.26,3.75,3.44,5.57q34.35,53.1,68.7,106.19a66.52,66.52,0,0,1,5,8.9c4.6,10.35,2.08,15.74-9,16.76-11.34,1.06-22.82.84-34.23.89-3.78,0-7.56-.82-11.33-1.33-5.37-.73-9-3.79-11.85-8.33q-28.21-44.85-56.62-89.59-6.6-10.44-13.24-20.85c-.59-.92-1.35-1.74-3-3.85v7.19q0,51.51,0,103c0,8.94-1.33,10.95-10.13,12.64a111.36,111.36,0,0,1-31.78,1.2,77.07,77.07,0,0,1-13-2.15c-5.33-1.48-6.63-3.62-6.67-9.24-.06-7.63,0-15.26,0-22.89v-291c0-1.81,0-3.62,0-5.42a7.55,7.55,0,0,1,5.33-7.88,37.16,37.16,0,0,1,9.27-2.46c11.81-1,23.64-1.52,35.41.6a28.55,28.55,0,0,1,4.64,1.22c5.49,1.94,6.9,3.9,7,9.77.06,6.63,0,13.26,0,19.88v167.9Z" />
            <path fill="#ffffff" d="M1416.53,266.8c.39,21.09-2.5,41.63-10.63,61.2-13.14,31.65-36.53,51.87-69.62,60.2-30.41,7.65-60.87,7.25-90.6-3.55-28.57-10.37-46.8-30.88-55.87-59.65-7.47-23.7-8.65-48-6.31-72.61a140.64,140.64,0,0,1,8.08-36.28c13.77-36.72,40.38-58.73,78.45-66.38,26.28-5.28,52.72-4.68,78.56,3.32,28.25,8.74,47.79,27.06,58.42,54.73C1414.3,226.78,1416.79,246.57,1416.53,266.8ZM1298.88,344c15.26-.37,28.62-4.69,38.71-16.61,6.5-7.66,10.24-16.75,12.39-26.45,4.36-19.66,4.1-39.42.9-59.19a82.29,82.29,0,0,0-3.15-12.21c-6.83-20.92-21-32.85-43.21-34.05-24-1.3-42,7.74-51.48,31.28a96.16,96.16,0,0,0-4.2,13.78c-3.63,15.23-3.28,30.72-2,46.12.93,11.4,3.43,22.58,8.85,32.91,5.93,11.29,14.86,18.88,27.22,22C1288.1,342.91,1293.55,343.25,1298.88,344Z" />
            <path fill="#ffffff" d="M611.94,387.79c-6-3.88-8.64-9.59-10.93-15.72q-36.71-98.4-73.52-196.76a48.89,48.89,0,0,1-2.83-12.22c-.51-5.25,1.73-8.47,6.85-9.89a55.83,55.83,0,0,1,13.62-2.15c9.81-.17,19.64.31,29.46.46,8.17.13,12.66,4.4,15.22,12,7,20.72,14.34,41.31,21.58,61.94q14.37,40.88,28.79,81.74c.53,1.49,1.16,2.94,2,5.08.82-1.84,1.48-3,1.88-4.27q23-72.88,45.8-145.81c2-6.41,5.64-9.72,12.23-10.51a147.61,147.61,0,0,1,36.62.27,24.37,24.37,0,0,1,5.79,1.58c4.88,1.94,7.15,5,6.62,10.21a59.2,59.2,0,0,1-2.89,12.84q-20.4,60.43-41,120.81C688.7,351.9,670,406.34,651.74,461c-2.67,8-7.61,12-15.16,13.52a131.64,131.64,0,0,1-37.74,2,51.48,51.48,0,0,1-10.05-1.69c-6.51-1.91-8.51-5.44-6.19-11.82,4-11.11,8.57-22.06,12.92-33.07q7.32-18.47,14.66-36.92C610.83,391.32,611.32,389.62,611.94,387.79Z" />
            <path fill="#ffffff" d="M2045.42,387.71c-5.8-3.38-8.54-8.4-10.62-14Q1998,275.4,1961.25,177.08a81.29,81.29,0,0,1-3.24-10.94c-1.65-7.39.8-11.47,8.28-13.36a52.71,52.71,0,0,1,12.46-1.78c10-.06,20,.34,30,.63,7.41.21,11.49,4.26,13.85,11.15,8.19,23.9,16.67,47.7,25,71.54q12.66,36,25.36,72.06c.64,1.8,1.47,3.53,2.71,6.5,3.79-12,7.17-22.64,10.52-33.28q18.67-59.39,37.29-118.79c1.64-5.26,5-8.08,10.23-8.85a137.21,137.21,0,0,1,39,.14,20.48,20.48,0,0,1,5.7,1.86c4.6,2.14,6.66,5.65,5.89,10.69a66.62,66.62,0,0,1-2.71,11.06q-48.37,142.71-96.74,285.42c-2.58,7.64-7.35,11.8-14.77,13.27a134.26,134.26,0,0,1-44.89,1.3,11.82,11.82,0,0,1-1.18-.26c-8.8-2.13-11-5.95-7.67-14.44,7.19-18.51,14.58-36.93,21.9-55.39C2040.6,399.85,2042.89,394.09,2045.42,387.71Z" />
            <path fill="#ffffff" d="M2581.57,248c-.17-10.93.76-21.11-2-31.16-3.25-12.11-11.16-19.31-23.3-21.58a97.85,97.85,0,0,0-44.1,2,181.55,181.55,0,0,0-35.15,14,52.73,52.73,0,0,1-8.28,3.51c-4.83,1.5-8.07.08-10.54-4.35a22,22,0,0,1-2-5c-2.15-8.08-2-16.34-1-24.51.87-6.89,5.44-11.42,11.23-14.82,11-6.46,22.9-10.68,35.18-13.79a183.79,183.79,0,0,1,84.06-1.6,79.88,79.88,0,0,1,26.61,10.85c15.15,9.67,23.09,24,27,41.13,2.66,11.84,3,23.88,3.08,35.9.18,45.36.07,90.73.07,136.1,0,.6,0,1.2,0,1.8-.13,7.79-2.39,10.41-10.1,11.48a116,116,0,0,1-31.8.05c-7-1-9.31-3.6-9.36-10.71,0-4.2,0-8.39,0-13.19-3.54,1.24-5.43,3.88-7.72,5.87-11.89,10.31-25.24,18-40.77,20.91-24.13,4.55-47.62,2.81-69.31-9.86-18.54-10.83-28.07-27.65-30.29-48.63-1-9.78-.92-19.65,1.54-29.32,4.41-17.31,14.68-30.06,30.15-38.76,13.49-7.58,28.22-11.27,43.36-13.64,14.72-2.3,29.54-2.79,44.41-2.65C2568.54,248,2574.54,248,2581.57,248Zm0,39c-13.59,0-26.23-.35-38.84.16a66.93,66.93,0,0,0-17,3.45c-16.54,5.19-23.71,15.83-22.64,33.05.64,10.27,5.68,17.78,14.92,22.37,8.27,4.11,17.07,4.24,25.9,2.83,10.47-1.67,19-7.31,26.75-14.2,10.93-9.67,10.95-9.64,10.95-23.93Z" />
            <path fill="#ffffff" d="M1785.43,285.72c.85,21.61,4.4,40.9,24.12,52.77,7.16,4.31,15.09,6.41,23.34,7.36,21.3,2.46,42-.72,62.3-6.94,4.59-1.4,9.07-3.2,13.63-4.73a60.45,60.45,0,0,1,8.64-2.53c4.52-.79,7.24,1.16,8.5,5.63a17.19,17.19,0,0,1,.89,4.71c-.1,8-.27,16-.6,24-.26,6.57-4.06,10.52-9.91,13.07-11.3,4.92-23.18,7.66-35.19,10.07-18.21,3.67-36.62,4.48-55.09,3.5a135.53,135.53,0,0,1-42.82-8.83c-29.08-11.48-46.72-33.08-54.67-62.85-5.49-20.5-6.89-41.41-5.36-62.61,1.39-19.22,5.16-37.76,13.75-55.07,15.84-31.88,41.79-50,76.83-55.14,17.61-2.59,35.27-2.32,52.6,1.89,35.74,8.71,57.8,31.41,66.7,66.92,4.22,16.86,5.16,34.06,3.89,51.36-.85,11.48-7.19,17.34-18.84,17.36q-62.61.1-125.24,0Zm92.15-40.17c.34-11.84-1.09-22.68-5.86-32.87-5.24-11.22-13.69-18.8-26-21.11a79.24,79.24,0,0,0-16.71-1.22c-12.78.36-23.14,5.93-31,16-8.85,11.41-11.56,24.8-12.43,39.2Z" />
            <path fill="#ffffff" d="M3424.63,363.92c-1.31,1.15-2.64,2.25-3.91,3.43-22.62,21.19-49.42,28.74-79.88,24.64-10.65-1.43-20.85-4.16-30.29-9.33-19.13-10.48-29.85-26.69-32.88-48.26a83.66,83.66,0,0,1,.76-28.72c4.54-22.09,18.43-36.42,38.53-45.32a134,134,0,0,1,45.42-10.83c15.4-1,30.86-1.07,46.3-1.53,2.17-.06,4.34,0,6.8,0a22.27,22.27,0,0,0,.67-4.45c-.58-8.58-.59-17.28-2.13-25.7-2.34-12.81-10.78-20.33-23.51-22.63a93.81,93.81,0,0,0-47.52,3.17c-10.78,3.68-21.13,8.62-31.67,13-2.77,1.15-5.46,2.59-8.31,3.45-4.49,1.36-7.87,0-10.17-4.07a18.52,18.52,0,0,1-2.59-6.69,153.49,153.49,0,0,1-1.2-19.15c.16-8.47,4.41-14.64,11.86-18.93,10.89-6.27,22.55-10.44,34.63-13.53,29.69-7.59,59.54-8.2,89.27-.52,17.52,4.52,32,13.76,41.2,30,5.42,9.58,8.21,20.06,9.32,30.9.86,8.36,1.24,16.8,1.26,25.21.12,45.37.06,90.74.06,136.1,0,1.61-.05,3.22,0,4.82.13,4.26-2.06,6.85-6,7.93a31.72,31.72,0,0,1-8.25,1.46c-9.4,0-18.83.13-28.2-.57-6.64-.5-8.36-3.17-8.45-10-.05-4.21-.08-8.42-.17-12.63C3425.6,364.83,3425.15,364.54,3424.63,363.92Zm-8.89-77.35c-5.42,0-10.59-.16-15.75,0-9.8.36-19.63.57-29.39,1.49a43.8,43.8,0,0,0-20.29,7c-10.93,7.27-14.63,17.73-12.71,30.26,2,12.85,9.16,20.29,22,23.12,12.49,2.76,24.55,1.24,35.11-6.12,6.86-4.78,12.83-10.83,19.21-16.29,2-1.74,2.36-4,2.34-6.5-.09-9.43,0-18.86,0-28.29C3416.18,289.89,3415.93,288.53,3415.74,286.57Z" />
            <path fill="#ffffff" d="M1518.73,184.19c7.88-6.7,14.79-13.13,22.25-18.85,22-16.86,46.94-22.25,73.92-16.82,28.49,5.74,46.21,23.63,54.29,51.22,3.81,13,5.07,26.36,5.07,39.86l0,80.11q0,28,0,56c0,7.59-1.3,9.55-8.8,11.25-10.85,2.46-21.9,2.45-32.93,1.57a70.06,70.06,0,0,1-11.28-1.66c-6.93-1.72-8.49-3.9-8.49-11,0-40.76.11-81.52-.13-122.27,0-8.17-1.28-16.36-2.38-24.48-.43-3.1-1.87-6.12-3.12-9.06-7.88-18.52-27.59-23.49-43.26-17.5-11.39,4.36-19.61,12.9-28.18,21.13-6.78,6.51-8.74,13.77-8.64,23,.45,42.35.2,84.72.2,127.08,0,10-1.79,12.79-11.68,13.72-10.34,1-20.8.78-31.21.74a44.85,44.85,0,0,1-11.25-1.69c-6-1.61-7.49-3.71-7.5-9.86q0-107.22,0-214.43c0-6,1.3-7.81,7.15-9.45,9.8-2.74,19.84-2.53,29.87-1.66a44.33,44.33,0,0,1,7.7,1.26c6,1.6,8,4.1,8.08,10.27.11,5.41,0,10.84,0,16.26C1518.49,180.54,1518.63,182.08,1518.73,184.19Z" />
            <path fill="#ffffff" d="M2756.25,186.26c7.46-8.36,14-16.21,21.13-23.52,6.94-7.13,15.15-12.57,25.1-14.72a61.92,61.92,0,0,1,32.64,1.92c4.64,1.5,7.37,4.43,7.92,9.49a166.37,166.37,0,0,1-.33,42c-1.12,7.84-4.59,9.69-12.31,7.37-3.46-1-6.91-2.1-10.39-3-9.71-2.64-18.63-.87-26.9,4.82-7.56,5.2-13.41,12-18.8,19.33-8.84,11.93-8.79,12-8.79,26.9,0,39.15-.06,78.3.05,117.45,0,7.54-.11,11.32-11.14,13.24a126.47,126.47,0,0,1-40.17,0,26.11,26.11,0,0,1-4.62-1.32c-4-1.4-6.27-4.17-6.25-8.56,0-1.4,0-2.81,0-4.21V165.66c0-10.27,2-12.44,12.28-13.93a99.42,99.42,0,0,1,29.38.05,27.28,27.28,0,0,1,4.67,1.07c4.92,1.68,6.42,3.66,6.5,8.82.1,6.22,0,12.45,0,18.67Z" />
        </g>
    </g>
</svg>