<?xml version="1.0" encoding="utf-8"?>
<!-- Svg Vector Icons : http://www.onlinewebfonts.com/icon -->
<!DOCTYPE svg PUBLIC "-//W3C//DTD SVG 1.1//EN" "http://www.w3.org/Graphics/SVG/1.1/DTD/svg11.dtd">
<svg version="1.1" xmlns="http://www.w3.org/2000/svg" xmlns:xlink="http://www.w3.org/1999/xlink" x="0px" y="0px" viewBox="0 0 1000 1000" enable-background="new 0 0 1000 1000" xml:space="preserve">
<metadata> Svg Vector Icons : http://www.onlinewebfonts.com/icon </metadata>
<g><g transform="translate(0.000000,511.000000) scale(0.100000,-0.100000)"><path d="M1818.2,2528.5C661.6,1370,115.8,810.8,106.3,776.4c-23-97.7,11.5-155.1,199.1-344.7C495,244,552.4,209.6,650.1,234.5c34.5,7.7,499.8,459.6,1440,1397.9c764,760.2,1407.4,1394,1430.4,1405.5c23,11.5,68.9,21.1,103.4,21.1c57.4,0,122.5-57.4,681.7-616.6c338.9-338.9,620.4-612.8,624.2-607c3.8,3.8,17.2,46,30.6,93.8c51.7,178.1,183.8,392.5,342.8,561l68.9,70.8l-802.3,806.2c-442.3,442.3-827.2,817.6-855.9,833c-28.7,15.3-84.3,26.8-124.5,26.8C3518.6,4226.9,3472.6,4182.9,1818.2,2528.5z"/><path d="M6205.1,2628c-388.7-80.4-700.9-302.5-863.6-612.8c-113-220.2-132.1-306.4-149.4-710.4c-15.3-354.2-19.1-367.6-65.1-419.4c-99.6-107.2-113-415.5-28.7-664.5c46-143.6,157-337,260.4-455.7c44-49.8,93.8-139.8,118.7-210.6c130.2-371.5,428.9-687.4,760.2-808.1c137.9-49.8,384.9-67,526.6-36.4c254.7,55.5,543.8,260.4,712.3,507.4c78.5,114.9,204.9,379.1,204.9,430.8c0,13.4,36.4,67,82.3,116.8c189.6,212.5,300.6,471.1,314,737.2c11.5,199.1-13.4,317.9-82.3,386.8c-44.1,44-46,57.4-46,275.7c0,352.3-72.8,628.1-199.1,754.5c-24.9,24.9-53.6,84.3-67,134c-67,270-262.3,432.8-652.9,545.7C6846.6,2652.9,6398.5,2670.2,6205.1,2628z"/><path d="M2162.8,1226.4L807.1-129.4v-1283c0-1183.4,1.9-1288.7,34.5-1350c65.1-132.1,78.5-134,900-134c767.9,0,817.6,5.7,884.7,86.2c24.9,28.7,30.6,181.9,38.3,1013l9.6,978.5l44,61.3c26.8,38.3,70.9,68.9,114.9,82.3c114.9,30.6,1484,24.9,1560.6-7.7c99.6-42.1,134-95.7,143.6-224c7.7-95.7,13.4-114.9,40.2-107.2c51.7,17.2,681.7,264.2,687.4,271.9c13.4,11.5-114.9,243.2-235.5,427c-226,344.7-306.4,595.5-293,913.4c5.7,155.1,19.2,216.4,63.2,325.5c38.3,93.8,59.4,183.8,68.9,306.4l13.4,172.3l-559.1,561c-306.4,308.3-580.2,574.5-608.9,589.8c-28.7,15.3-84.3,26.8-124.5,26.8C3518.6,2580.2,3478.3,2541.9,2162.8,1226.4z"/><path d="M5182.6-1104c-555.3-224-936.4-404-1120.2-528.5c-440.4-298.7-743-896.2-825.3-1621.9c-28.7-258.5-21.1-271.9,199.1-356.2c666.4-254.7,1782.7-396.4,3125.1-396.4c1305.9,0,2424.2,137.9,3100.2,384.9c243.2,88.1,248.9,97.7,233.6,312.1c-30.6,409.8-187.7,900-384.9,1210.2c-178.1,277.7-384.9,453.8-731.5,628.1C8568-1366.3,7700.6-992.9,7691-1004.5c-1.9-3.8-36.4-134-74.7-293c-183.8-744.9-377.2-1269.5-679.8-1857.4c-239.4-463.4-310.2-572.5-371.5-580.2c-44-5.7-59.4,13.4-149.4,162.8c-384.9,649.1-676,1373-890.4,2207.8c-47.9,183.8-88.1,340.8-90,348.5C5433.4-1010.2,5320.4-1048.5,5182.6-1104z"/><path d="M6253-1735.9c-5.8-13.4,9.6-128.3,34.5-252.8l44-227.9h229.8h229.8l46,224c24.9,122.5,40.2,237.4,34.5,252.8c-9.6,26.8-55.5,30.6-310.2,30.6C6325.7-1709.1,6260.6-1714.9,6253-1735.9z"/><path d="M6348.7-2362.1c-17.2-28.7-103.4-400.2-103.4-453.8c0-46,116.8-289.2,243.2-507.4l74.7-128.3l88.1,157c47.9,88.1,122.5,227.9,164.7,312.1l76.6,153.2l-51.7,220.2c-26.8,120.6-57.5,231.7-65.1,245.1C6754.7-2333.3,6367.9-2331.4,6348.7-2362.1z"/></g></g>
</svg>